<?xml version="1.0" standalone="no"?>
<!DOCTYPE svg PUBLIC "-//W3C//DTD SVG 20010904//EN"
 "http://www.w3.org/TR/2001/REC-SVG-20010904/DTD/svg10.dtd">
<svg version="1.0" xmlns="http://www.w3.org/2000/svg"
 width="100.000000pt" height="100.000000pt" viewBox="0 0 100.000000 100.000000"
 preserveAspectRatio="xMidYMid meet">
<metadata>
Created by potrace 1.14, written by Peter Selinger 2001-2017
</metadata>
<g transform="translate(0.000000,100.000000) scale(0.100000,-0.100000)"
fill="#000000" stroke="none">
<path d="M210 882 c-7 -3 -10 -137 -10 -392 1 -338 3 -388 16 -383 8 3 21 0
29 -7 8 -7 15 -9 15 -5 0 4 7 2 15 -5 13 -10 18 -11 28 -1 9 10 8 11 -4 6 -10
-4 -20 -1 -24 4 -3 6 -11 9 -16 6 -5 -4 -9 -2 -9 3 0 15 61 7 71 -9 7 -12 9
-11 9 1 0 12 14 15 70 14 39 -1 77 -8 85 -14 8 -7 15 -9 15 -5 0 4 7 2 15 -5
13 -10 18 -11 28 -1 9 10 8 11 -4 6 -10 -4 -20 -1 -24 4 -3 6 -11 9 -16 6 -5
-4 -9 -2 -9 3 0 15 61 7 71 -9 7 -12 9 -11 9 2 0 10 8 15 23 13 12 -1 28 -3
35 -3 7 -1 11 -5 8 -10 -4 -5 2 -8 11 -6 10 1 24 -2 31 -8 9 -7 17 -6 25 2 9
10 8 11 -4 6 -10 -4 -20 -1 -24 4 -3 6 -11 9 -16 6 -5 -4 -9 -2 -9 3 0 15 61
7 71 -9 7 -11 9 -11 9 2 0 13 8 15 35 12 l35 -3 0 288 0 288 -97 90 c-53 49
-101 94 -107 99 -10 9 -361 15 -386 7z"/>
<path d="M395 90 c3 -5 8 -10 11 -10 2 0 4 5 4 10 0 6 -5 10 -11 10 -5 0 -7
-4 -4 -10z"/>
</g>
</svg>
